<svg width="327" height="184" viewBox="0 0 327 184" fill="none" xmlns="http://www.w3.org/2000/svg">
<path fill-rule="evenodd" clip-rule="evenodd" d="M75.4332 6.48005C54.1552 17.013 33.4162 44.1911 26.7262 70.3111C21.5542 90.5031 18.3672 96.486 8.9582 103.663C-0.169801 110.625 -2.4458 117.544 2.7002 122.69C4.6482 124.638 4.4942 127.679 2.1932 132.73C-0.431804 138.491 -0.428803 142.512 2.2062 152.364C12.1712 189.624 46.9182 192.913 135.056 164.937C136.789 164.387 143.389 166.567 149.723 169.783C187.241 188.829 250.572 161.712 250.572 126.601C250.572 123.239 254.107 119.675 260.572 116.515C266.56 113.589 272.177 108.175 274.572 103.02C276.772 98.2851 279.875 94.385 281.468 94.3531C283.061 94.3221 288.526 89.7961 293.613 84.2961C298.7 78.7961 306.594 72.3111 311.155 69.8841C339.975 54.5541 326.91 30.2961 289.834 30.2961C281.922 30.2961 273.351 31.934 270.551 33.982C266.119 37.222 264.275 36.851 255.309 30.917C242.757 22.611 221.322 19.77 216.355 25.754C213.433 29.275 211.313 28.639 199.524 20.706C187.045 12.308 179.654 10.391 162.777 11.175C148.683 11.83 150.018 22.2961 164.195 22.2961C180.672 22.2961 193.029 31.8511 215.48 61.9511C226.077 76.1591 248.261 94.2961 255.042 94.2961C260.497 94.2961 259.217 99.096 252.855 102.501C237.066 110.951 211.409 96.6441 186.039 65.243C136.759 4.24805 109.355 -10.311 75.4332 6.48005ZM126.449 28.6361C129.936 30.9211 141.429 44.236 151.99 58.225C180.804 96.393 209.97 120.687 227.239 120.904C242.209 121.092 224.482 153.677 204.232 163.196C189.144 170.288 187.611 170.302 172.194 163.482C152.093 154.59 138.59 154.975 99.9062 165.543C62.0092 175.896 48.0962 177.345 35.9062 172.212C28.2822 169.001 15.9242 151.852 15.8892 144.434C15.8802 142.525 14.2172 137.788 12.1922 133.908L8.5122 126.854L27.5422 124.057C53.9042 120.183 92.0002 127.521 104.567 138.895C116.851 150.011 105.748 150.388 83.0002 139.627C63.4492 130.378 61.9502 130.047 66.9122 136.074C83.4022 156.099 114.572 162.752 114.572 146.247C114.572 126.357 65.2532 109.161 30.4292 116.909C5.5952 122.434 3.3842 121.089 21.2832 111.348C35.3252 103.705 40.9712 95.9221 47.8122 74.7801C59.5782 38.4141 102.728 13.0941 126.449 28.6361ZM243.506 44.46C271.654 74.054 278.126 85.6951 261.712 77.2071C247.397 69.8051 219.663 35.629 227.971 35.629C232.579 35.629 238.08 38.756 243.506 44.46ZM309.239 51.392C309.239 53.698 292.936 68.721 292.237 67.059C292.055 66.624 288.381 62.375 284.073 57.616L276.241 48.962H292.74C301.814 48.962 309.239 50.056 309.239 51.392Z" fill="black"/>
</svg>
