<svg xmlns="http://www.w3.org/2000/svg" width="327" height="184" fill="none" viewBox="0 0 327 184"><path fill="#000" fill-rule="evenodd" d="M75.433 6.48C54.155 17.013 33.416 44.191 26.726 70.311c-5.172 20.192-8.359 26.175-17.768 33.352C-.17 110.625-2.446 117.544 2.7 122.69c1.948 1.948 1.794 4.989-.507 10.04-2.625 5.761-2.622 9.782.013 19.634 9.965 37.26 44.712 40.549 132.85 12.573 1.733-.55 8.333 1.63 14.667 4.846 37.518 19.046 100.849-8.071 100.849-43.182 0-3.362 3.535-6.926 10-10.086 5.988-2.926 11.605-8.34 14-13.495 2.2-4.735 5.303-8.635 6.896-8.667 1.593-.03 7.058-4.557 12.145-10.057s12.981-11.985 17.542-14.412c28.82-15.33 15.755-39.588-21.321-39.588-7.912 0-16.483 1.638-19.283 3.686-4.432 3.24-6.276 2.869-15.242-3.065-12.552-8.306-33.987-11.147-38.954-5.163-2.922 3.521-5.042 2.885-16.831-5.048-12.479-8.398-19.87-10.315-36.747-9.531-14.094.655-12.759 11.121 1.418 11.121 16.477 0 28.834 9.555 51.285 39.655 10.597 14.208 32.781 32.345 39.562 32.345 5.455 0 4.175 4.8-2.187 8.205-15.789 8.45-41.446-5.857-66.816-37.258C136.759 4.248 109.355-10.311 75.433 6.48m51.016 22.156c3.487 2.285 14.98 15.6 25.541 29.589 28.814 38.168 57.98 62.462 75.249 62.679 14.97.188-2.757 32.773-23.007 42.292-15.088 7.092-16.621 7.106-32.038.286-20.101-8.892-33.604-8.507-72.288 2.061-37.897 10.353-51.81 11.802-64 6.669-7.624-3.211-19.982-20.36-20.017-27.778-.009-1.909-1.672-6.646-3.697-10.526l-3.68-7.054 19.03-2.797c26.362-3.874 64.458 3.464 77.025 14.838 12.284 11.116 1.181 11.493-21.567.732-19.55-9.249-21.05-9.58-16.088-3.553 16.49 20.025 47.66 26.678 47.66 10.173 0-19.89-49.319-37.086-84.143-29.338-24.834 5.525-27.045 4.18-9.146-5.561 14.042-7.643 19.688-15.426 26.53-36.568 11.765-36.366 54.915-61.686 78.636-46.144M243.506 44.46c28.148 29.594 34.62 41.235 18.206 32.747-14.315-7.402-42.049-41.578-33.741-41.578 4.608 0 10.109 3.127 15.535 8.831m65.733 6.932c0 2.306-16.303 17.329-17.002 15.667-.182-.435-3.856-4.684-8.164-9.443l-7.832-8.654h16.499c9.074 0 16.499 1.094 16.499 2.43" clip-rule="evenodd"/></svg>