<svg width="303" height="294" viewBox="0 0 303 294" fill="none" xmlns="http://www.w3.org/2000/svg">
<path fill-rule="evenodd" clip-rule="evenodd" d="M76.6015 7.15849C63.7735 15.3085 54.6335 27.0695 42.7195 50.7575C38.5335 59.0795 31.5775 69.5005 27.2605 73.9165C-0.642548 102.464 -9.17055 143.983 11.3135 151.561C16.0905 153.328 16.5605 155.578 15.8455 173.246C13.2185 238.126 41.0644 283.931 82.4435 282.796C93.3405 282.496 99.2075 283.712 103.776 287.217C113.851 294.945 118.424 295.633 132.323 291.505C143.93 288.059 146.526 288.085 155.294 291.749C165.127 295.857 184.125 289.262 190.045 279.682C190.911 278.281 194.873 277.742 198.849 278.484C208.578 280.301 222.308 271.457 227.87 259.793C230.417 254.451 235.587 249.211 240.19 247.304C257.88 239.977 271.351 223.235 271.474 208.425C271.514 203.668 275.012 197.099 281.118 190.316C291.645 178.623 296.399 168.711 294.212 163.012C293.433 160.98 295.184 154.635 298.103 148.912C304.993 135.408 304.876 133.931 295.446 115.335C289.445 103.502 287.472 95.9425 287.446 84.6935C287.412 69.6455 280.471 55.6875 267.857 45.3005C265.412 43.2875 263.412 39.0115 263.412 35.7995C263.412 12.3595 210.03 -0.928515 160.117 10.0865C127.736 17.2325 75.8375 33.6945 63.4125 40.7595L54.0795 46.0675L66.3035 31.5135C83.2445 11.3455 92.5465 6.85248 106.886 11.9115C123.339 17.7165 128.618 14.1335 115.412 6.12349C101.459 -2.33951 91.1175 -2.06351 76.6015 7.15849ZM232.157 25.5705C241.46 29.2915 247.412 35.6255 247.412 41.8025C247.412 43.1925 236.912 45.1605 224.079 46.1765C153.012 51.8035 103.376 59.7365 101.358 65.7905C99.9415 70.0415 108.724 69.8125 131.413 65.0065C141.679 62.8315 156.679 61.0085 164.746 60.9545C178.872 60.8595 228.333 55.0385 242.079 51.8535C254.744 48.9175 272.42 67.8495 271.82 83.7075C271.226 99.4085 271.418 99.2005 261.845 94.5195C247.76 87.6315 108.214 76.4255 102.886 81.7535C99.0025 85.6365 105.337 86.9725 143.412 90.3025C161.746 91.9055 183.946 94.2795 192.746 95.5785C201.546 96.8785 219.546 98.6915 232.746 99.6075C268.914 102.119 269.037 102.168 278.746 118.156C288.417 134.082 288.644 135.117 283.855 141.415C279.747 146.816 258.421 141.814 227.194 128.125C188.79 111.29 129.204 92.1965 107.645 89.8175C97.5674 88.7055 95.5975 94.4095 105.308 96.5835C126.124 101.243 175.284 118.029 206.079 130.992C225.146 139.018 248.816 147.075 258.679 148.895C281.538 153.114 286.545 164.391 272.013 178.923L263.919 187.017L256.332 181.756C252.16 178.862 246.706 175.76 244.214 174.862C241.721 173.965 227.921 166.127 213.547 157.444C164.27 127.68 118.074 103.191 108.746 101.888C97.5255 100.32 101.307 104.376 122.079 116.186C165.698 140.986 188.228 154.897 213.624 172.707C229.507 183.846 245.405 194.76 248.952 196.96C258.696 203.003 257.522 214.05 245.901 225.671L236.391 235.181L207.901 207.272C133.057 133.949 86.9055 96.0055 87.5115 108.293C87.5655 109.393 97.9764 118.693 110.645 128.96C123.315 139.227 154.185 168.121 179.244 193.171L224.807 238.715L215.86 251.171C203.283 268.681 197.63 267.892 187.412 247.201C180.915 234.044 143.496 184.498 93.2645 122.545C74.6385 99.5735 81.1844 118.065 100.731 143.639C112.496 159.032 130.813 184.027 141.434 199.184C152.443 214.892 163.474 230.583 174.528 246.257L188.31 265.772L182.528 270.951C168.423 283.578 164.972 284.782 154.914 280.58C149.782 278.435 144.194 277.148 142.497 277.719C140.576 278.365 137.262 270.047 133.712 255.669C124.87 219.861 80.6444 116.96 74.0965 116.96C69.0555 116.96 71.4075 128.276 80.7465 148.96C85.8795 160.329 90.0795 171.508 90.0795 173.803C90.0795 181.984 104.312 217.387 118.15 243.626C136.649 278.704 137.01 280.169 128.165 284.293C118.393 288.849 114.727 288.487 111.608 282.659C107.68 275.319 94.4184 270.719 83.2365 272.817C46.2094 279.763 27.6115 199.376 45.0205 107.632C47.8025 92.9685 50.0795 76.5245 50.0795 71.0905C50.0795 59.8755 56.0094 56.2065 95.4124 43.0425C167.326 19.0175 204.048 14.3255 232.157 25.5705ZM26.3555 106.58C23.5025 118.889 20.7735 132.297 20.2905 136.376C19.1405 146.091 15.8545 146.566 9.41845 137.946C2.53745 128.73 4.64045 119.41 18.4025 98.1175C31.7185 77.5145 32.8195 78.6865 26.3555 106.58ZM60.7465 136.707C60.7465 146.101 64.9464 175.964 70.0795 203.068C75.2125 230.172 79.4124 255.486 79.4124 259.322C79.4124 263.156 80.7854 266.293 82.4624 266.293C88.0164 266.293 83.4515 201.982 75.6485 170.293C71.8555 154.893 68.7514 139.091 68.7495 135.178C68.7455 126.408 66.2934 119.626 63.1274 119.626C61.8174 119.626 60.7465 127.313 60.7465 136.707Z" fill="black"/>
</svg>
