<svg width="319" height="318" viewBox="0 0 319 318" fill="none" xmlns="http://www.w3.org/2000/svg">
<path fill-rule="evenodd" clip-rule="evenodd" d="M159.876 5.39642C151.01 12.8564 126.789 59.8504 120.012 82.7414C115.922 96.5564 121.548 97.7374 77.5647 73.8284C-7.52626 27.5734 -25.6893 53.6974 38.4577 130.074C50.7757 144.741 66.3997 160.616 73.1777 165.352C88.6347 176.154 88.6397 176.112 70.1677 190.466C17.3687 231.494 -16.2333 296.065 18.1157 290.491C34.3957 287.849 96.4387 246.356 117.421 224.078C128.951 211.836 129.67 211.798 133.442 223.226C141.845 248.69 189.527 313.973 202.008 317.106C224.024 322.632 226.269 275.824 207.049 211.991C198.591 183.9 199.068 182.836 221.047 180.828C288.852 174.635 313.063 166.606 318.568 148.486C324.266 129.731 268.855 115.413 202.795 118.571C175.226 119.889 176.961 122.36 182.794 90.0744C194.687 24.2504 184.074 -14.9646 159.876 5.39642ZM177.278 12.0744C180.926 30.1434 180.961 41.9204 177.448 68.7244C175.312 85.0194 171.763 104.29 169.561 111.547C162.649 134.334 158.748 132.691 220.838 133.146C283.635 133.606 304.94 136.942 306.319 146.529C307.475 154.567 289.957 159.854 242.105 165.909C183.888 173.276 184.026 173.082 198.655 227.017C213.472 281.645 213.501 281.781 213.501 294.893C213.501 313.684 206.353 314.634 194.892 297.366C191.257 291.889 183.558 280.889 177.783 272.923C172.009 264.957 159.543 244.557 150.081 227.59C140.619 210.623 132.518 196.341 132.078 195.852C131.639 195.363 124.275 201.963 115.714 210.518C94.2957 231.922 21.1327 281.262 16.9757 277.105C13.2777 273.406 48.0327 226.759 71.0747 204.498C102.766 173.88 102.76 174.827 71.4587 143.856C34.2517 107.042 5.42574 66.5944 11.8307 60.1884C14.8007 57.2194 41.2937 65.0874 52.6547 72.3134C58.7887 76.2154 74.3747 86.6074 87.2897 95.4074C100.206 104.207 112.041 112.23 113.592 113.235C118.235 116.245 123.049 111.449 124.155 102.711C125.148 94.8684 144.792 44.4644 153.826 26.5844C159.335 15.6794 168.119 6.07442 172.582 6.07442C174.498 6.07442 176.612 8.77442 177.278 12.0744ZM164.812 30.4074C162.258 31.8364 160.168 34.1464 160.168 35.5404C160.168 39.7084 168.209 38.4034 169.914 33.9594C172.04 28.4204 170.401 27.2794 164.812 30.4074ZM153.088 58.1894C152.22 60.4524 152.206 63.0014 153.057 63.8524C155.748 66.5434 162.835 62.4154 162.835 58.1584C162.835 52.8354 155.133 52.8604 153.088 58.1894ZM145.132 79.4074C142.778 85.5444 146.28 91.9054 151.463 90.9074C157.249 89.7934 159.272 80.8364 154.43 77.7684C149.223 74.4684 146.869 74.8834 145.132 79.4074ZM32.1677 84.2964C32.1677 89.8314 35.3237 91.6544 39.2557 88.3914C44.4247 84.1014 43.6537 80.7414 37.5007 80.7414C34.5677 80.7414 32.1677 82.3414 32.1677 84.2964ZM55.3707 101.093C50.7997 105.665 53.5507 113.105 59.5007 112.259C63.4237 111.702 65.5007 109.573 65.5007 106.111C65.5007 100.821 58.9087 97.5554 55.3707 101.093ZM143.501 102.373C137.428 105.8 137.193 116.122 143.216 114.936C145.625 114.462 148.898 112.007 150.489 109.481C154.363 103.329 149.883 98.7724 143.501 102.373ZM78.3967 124.92C77.5147 127.218 78.0717 130.378 79.6347 131.941C83.7827 136.089 90.8347 132.447 90.8347 126.158C90.8347 119.581 80.8277 118.585 78.3967 124.92ZM137.97 132.481C137.18 134.539 138.122 138.394 140.063 141.047C144.325 146.876 152.168 142.146 152.168 133.747C152.168 127.715 140.208 126.648 137.97 132.481ZM106.668 142.385C103.014 149.213 109.136 157.142 116.022 154.499C122.858 151.876 124.302 144.409 118.758 140.355C112.071 135.465 110.204 135.778 106.668 142.385ZM269.501 145.878C269.501 148.352 271.781 150.074 275.057 150.074C281.556 150.074 280.637 143.843 273.947 142.545C271.316 142.035 269.501 143.395 269.501 145.878ZM212.612 148.546C210.74 153.422 217.536 159.143 222.801 157.123C225.019 156.271 226.835 153.137 226.835 150.158C226.835 143.724 214.978 142.38 212.612 148.546ZM241.139 148.723C240.216 151.13 240.739 154.378 242.301 155.941C246.364 160.004 254.062 156.29 253.001 150.779C251.819 144.641 243.274 143.16 241.139 148.723ZM188.612 149.185C184.502 153.296 187.055 158.413 192.807 157.593C200.357 156.516 202.742 147.407 195.475 147.407C192.678 147.407 189.59 148.207 188.612 149.185ZM161.181 153.946C159.31 158.824 162.032 163.407 166.802 163.407C171.692 163.407 179.271 155.603 177.368 152.526C174.956 148.622 162.815 149.688 161.181 153.946ZM118.515 169.946C116.48 175.249 119.494 179.407 125.373 179.407C130.491 179.407 134.596 172.67 132.019 168.5C129.647 164.662 120.152 165.679 118.515 169.946ZM148.612 178.518C145.234 181.897 146.85 189.509 151.308 191.22C156.973 193.394 164.089 186.524 161.95 180.947C160.329 176.724 151.936 175.195 148.612 178.518ZM97.9457 191.852C93.8347 195.962 96.3887 201.08 102.141 200.259C109.69 199.182 112.076 190.074 104.808 190.074C102.012 190.074 98.9237 190.874 97.9457 191.852ZM163.501 205.173C156.139 208.144 161.186 222.074 169.626 222.074C173.345 222.074 176.213 210.675 173.36 207.237C170.022 203.216 168.924 202.986 163.501 205.173ZM74.8347 212.207C74.8347 217.329 80.2817 221.863 84.4927 220.247C91.1787 217.681 88.8537 208.741 81.5007 208.741C77.8087 208.741 74.8347 210.287 74.8347 212.207ZM57.2277 228.647C53.3237 231.528 52.8887 233.113 55.3217 235.582C59.2327 239.55 66.8347 236.953 66.8347 231.648C66.8347 225.714 62.8757 224.477 57.2277 228.647ZM173.502 234.073C171.049 237.029 170.837 239.143 172.798 241.104C177.183 245.489 185.501 242.632 185.501 236.741C185.501 230.116 178.144 228.48 173.502 234.073ZM36.0577 251.585C35.0917 253.149 34.9687 255.097 35.7857 255.914C37.9797 258.108 45.5007 254.683 45.5007 251.491C45.5007 247.872 38.3087 247.943 36.0577 251.585ZM184.036 258.233C181.563 261.212 181.563 262.936 184.036 265.915C188.065 270.769 194.835 268.361 194.835 262.074C194.835 255.787 188.065 253.379 184.036 258.233ZM198.168 277.173C193.525 279.047 193.991 283.407 198.835 283.407C201.035 283.407 202.835 281.607 202.835 279.407C202.835 277.207 202.535 275.502 202.168 275.618C201.801 275.734 200.001 276.434 198.168 277.173Z" fill="black"/>
</svg>
