<svg width="302" height="292" viewBox="0 0 302 292" fill="none" xmlns="http://www.w3.org/2000/svg">
<path fill-rule="evenodd" clip-rule="evenodd" d="M125.524 4.72306C120.249 9.99806 120.199 18.4991 125.369 30.8741C133.063 49.2871 146.471 39.4911 142.505 18.3541C138.917 -0.763939 134.531 -4.28394 125.524 4.72306ZM200.366 16.8281C187.954 31.3281 184.277 41.7621 189.676 47.1611C198.455 55.9401 203.772 51.5981 212.965 28.1381C222.656 3.41207 216.545 -2.07394 200.366 16.8281ZM61.528 28.0611C54.39 33.2801 58.144 45.6381 70.544 57.7471C87.369 74.1751 91.578 62.5511 78.561 35.6091C72.9 23.8941 69.367 22.3281 61.528 28.0611ZM123.686 57.5481C57.783 81.0981 46.897 162.775 102.703 214.975C159.431 268.038 252.426 193.705 229.447 113.666C217.606 72.4221 163.058 43.4781 123.686 57.5481ZM259.333 67.3701C243.806 75.3851 240.911 79.9831 247.797 85.6971C253.767 90.6531 289.333 71.2331 289.333 63.0181C289.333 56.8051 276.076 58.7281 259.333 67.3701ZM172.607 71.3131C222.187 88.4081 237.903 155.794 201.678 195.961C151.596 251.493 74.714 216.28 74.837 137.866C74.924 82.1791 118.362 52.6101 172.607 71.3131ZM16.667 74.0761C12.401 78.3681 15.16 82.1401 27.729 89.1991C42.172 97.3111 57.333 99.0351 57.333 92.5661C57.333 84.0891 22.47 68.2371 16.667 74.0761ZM275.131 125.997C258.439 128.01 253.058 131.162 255.491 137.5C259.258 147.317 301.333 145.412 301.333 135.425C301.333 127.169 292.314 123.924 275.131 125.997ZM6.667 139.984C3 141.839 0 145.121 0 147.278C0 152.333 34.455 152.502 39.416 147.47C47.793 138.975 20.84 132.814 6.667 139.984ZM247.835 176.799C244.112 182.824 256.058 193.793 268.279 195.57C290.678 198.825 293.316 185.542 271.732 178.187C256.875 173.125 250.341 172.745 247.835 176.799ZM28.866 194.163C7.42 204.74 7.157 219.07 28.578 209.828C40.637 204.626 46.667 199.135 46.667 193.356C46.667 188.703 39.256 189.039 28.866 194.163ZM226.115 218.343C222.346 228.165 253.287 246.57 258.739 237.749C261.199 233.769 255.948 228.371 242.075 220.618C227.748 212.61 228.285 212.687 226.115 218.343ZM62 240.88C45.247 251.836 43.608 271.068 59.867 265.908C67.755 263.405 84.252 239.185 80.574 235.507C76.515 231.448 76.347 231.496 62 240.88ZM184.951 244.471C181.744 247.678 188.9 272.449 194.573 277.778C203.074 285.764 210.384 282.452 208.213 271.598C204.364 252.355 191.763 237.659 184.951 244.471ZM122.742 260.763C113.989 281.712 114.219 291.199 123.479 291.199C132.811 291.199 133.911 288.946 135.159 267.265C136.235 248.586 129.339 244.975 122.742 260.763Z" fill="black"/>
</svg>
